<?xml version="1.0" encoding="UTF-8" standalone="no"?>
<!DOCTYPE svg PUBLIC "-//W3C//DTD SVG 1.0//EN"
 "http://www.w3.org/TR/2001/REC-SVG-20010904/DTD/svg10.dtd" [
 <!ATTLIST svg xmlns:xlink CDATA #FIXED "http://www.w3.org/1999/xlink">
]>
<!-- Generated by Graphviz version 2.20.2 (Tue Mar &#160;2 21:46:26 UTC 2010)
     For user: (s) Sergio Alonso,,, -->
<!-- Title: models_diagram Pages: 1 -->
<svg width="536pt" height="160pt"
 viewBox="0.00 0.00 536.00 160.00" xmlns="http://www.w3.org/2000/svg" xmlns:xlink="http://www.w3.org/1999/xlink">
<g id="graph0" class="graph" transform="scale(1 1) rotate(0) translate(4 156)">
<title>models_diagram</title>
<polygon style="fill:white;stroke:white;" points="-4,4 -4,-156 532,-156 532,4 -4,4"/>
<!-- Version -->
<g id="node1" class="node"><title>Version</title>
<polyline style="fill:none;stroke:black;" points="12,-34 153,-34 "/>
<path style="fill:none;stroke:black;" d="M153,-34C159,-34 165,-40 165,-46"/>
<polyline style="fill:none;stroke:black;" points="165,-46 165,-106 "/>
<path style="fill:none;stroke:black;" d="M165,-106C165,-112 159,-118 153,-118"/>
<polyline style="fill:none;stroke:black;" points="153,-118 12,-118 "/>
<path style="fill:none;stroke:black;" d="M12,-118C6,-118 0,-112 0,-106"/>
<polyline style="fill:none;stroke:black;" points="0,-106 0,-46 "/>
<path style="fill:none;stroke:black;" d="M0,-46C0,-40 6,-34 12,-34"/>
<text text-anchor="middle" x="82" y="-100.9" style="font-family:Times New Roman;font-size:14.00;">Version</text>
<polyline style="fill:none;stroke:black;" points="0,-93 165,-93 "/>
<text text-anchor="start" x="7.5" y="-75.9" style="font-family:Times New Roman;font-size:14.00;">version :string</text>
<text text-anchor="start" x="7.5" y="-58.9" style="font-family:Times New Roman;font-size:14.00;">created_at :datetime</text>
<text text-anchor="start" x="7.5" y="-41.9" style="font-family:Times New Roman;font-size:14.00;">updated_at :datetime</text>
</g>
<!-- ErrorType -->
<g id="node2" class="node"><title>ErrorType</title>
<polyline style="fill:none;stroke:black;" points="194,-34 335,-34 "/>
<path style="fill:none;stroke:black;" d="M335,-34C341,-34 347,-40 347,-46"/>
<polyline style="fill:none;stroke:black;" points="347,-46 347,-106 "/>
<path style="fill:none;stroke:black;" d="M347,-106C347,-112 341,-118 335,-118"/>
<polyline style="fill:none;stroke:black;" points="335,-118 194,-118 "/>
<path style="fill:none;stroke:black;" d="M194,-118C188,-118 182,-112 182,-106"/>
<polyline style="fill:none;stroke:black;" points="182,-106 182,-46 "/>
<path style="fill:none;stroke:black;" d="M182,-46C182,-40 188,-34 194,-34"/>
<text text-anchor="middle" x="264" y="-100.9" style="font-family:Times New Roman;font-size:14.00;">ErrorType</text>
<polyline style="fill:none;stroke:black;" points="182,-93 347,-93 "/>
<text text-anchor="start" x="189.5" y="-75.9" style="font-family:Times New Roman;font-size:14.00;">errortype :string</text>
<text text-anchor="start" x="189.5" y="-58.9" style="font-family:Times New Roman;font-size:14.00;">created_at :datetime</text>
<text text-anchor="start" x="189.5" y="-41.9" style="font-family:Times New Roman;font-size:14.00;">updated_at :datetime</text>
</g>
<!-- Bug -->
<g id="node3" class="node"><title>Bug</title>
<polyline style="fill:none;stroke:black;" points="376,-0 517,-0 "/>
<path style="fill:none;stroke:black;" d="M517,-0C523,-0 529,-6 529,-12"/>
<polyline style="fill:none;stroke:black;" points="529,-12 529,-140 "/>
<path style="fill:none;stroke:black;" d="M529,-140C529,-146 523,-152 517,-152"/>
<polyline style="fill:none;stroke:black;" points="517,-152 376,-152 "/>
<path style="fill:none;stroke:black;" d="M376,-152C370,-152 364,-146 364,-140"/>
<polyline style="fill:none;stroke:black;" points="364,-140 364,-12 "/>
<path style="fill:none;stroke:black;" d="M364,-12C364,-6 370,-0 376,-0"/>
<text text-anchor="middle" x="446" y="-134.9" style="font-family:Times New Roman;font-size:14.00;">Bug</text>
<polyline style="fill:none;stroke:black;" points="364,-127 529,-127 "/>
<text text-anchor="start" x="371.5" y="-109.9" style="font-family:Times New Roman;font-size:14.00;">accepted :boolean</text>
<text text-anchor="start" x="371.5" y="-92.9" style="font-family:Times New Roman;font-size:14.00;">resolved :boolean</text>
<text text-anchor="start" x="371.5" y="-75.9" style="font-family:Times New Roman;font-size:14.00;">name :string</text>
<text text-anchor="start" x="371.5" y="-58.9" style="font-family:Times New Roman;font-size:14.00;">page :integer</text>
<text text-anchor="start" x="371.5" y="-41.9" style="font-family:Times New Roman;font-size:14.00;">description :string</text>
<text text-anchor="start" x="371.5" y="-24.9" style="font-family:Times New Roman;font-size:14.00;">created_at :datetime</text>
<text text-anchor="start" x="371.5" y="-7.9" style="font-family:Times New Roman;font-size:14.00;">updated_at :datetime</text>
</g>
</g>
</svg>
