<?xml version="1.0" encoding="UTF-8" standalone="no"?>
<!DOCTYPE svg PUBLIC "-//W3C//DTD SVG 1.0//EN"
 "http://www.w3.org/TR/2001/REC-SVG-20010904/DTD/svg10.dtd" [
 <!ATTLIST svg xmlns:xlink CDATA #FIXED "http://www.w3.org/1999/xlink">
]>
<!-- Generated by Graphviz version 2.20.2 (Tue Mar &#160;2 21:46:26 UTC 2010)
     For user: (s) Sergio Alonso,,, -->
<!-- Title: models_diagram Pages: 1 -->
<svg width="610pt" height="434pt"
 viewBox="0.00 0.00 610.00 434.00" xmlns="http://www.w3.org/2000/svg" xmlns:xlink="http://www.w3.org/1999/xlink">
<g id="graph0" class="graph" transform="scale(1 1) rotate(0) translate(4 430)">
<title>models_diagram</title>
<polygon style="fill:white;stroke:white;" points="-4,4 -4,-430 606,-430 606,4 -4,4"/>
<!-- Version -->
<g id="node1" class="node"><title>Version</title>
<polyline style="fill:none;stroke:black;" points="12,-265 153,-265 "/>
<path style="fill:none;stroke:black;" d="M153,-265C159,-265 165,-271 165,-277"/>
<polyline style="fill:none;stroke:black;" points="165,-277 165,-337 "/>
<path style="fill:none;stroke:black;" d="M165,-337C165,-343 159,-349 153,-349"/>
<polyline style="fill:none;stroke:black;" points="153,-349 12,-349 "/>
<path style="fill:none;stroke:black;" d="M12,-349C6,-349 0,-343 0,-337"/>
<polyline style="fill:none;stroke:black;" points="0,-337 0,-277 "/>
<path style="fill:none;stroke:black;" d="M0,-277C0,-271 6,-265 12,-265"/>
<text text-anchor="middle" x="82" y="-331.9" style="font-family:Times New Roman;font-size:14.00;">Version</text>
<polyline style="fill:none;stroke:black;" points="0,-324 165,-324 "/>
<text text-anchor="start" x="7.5" y="-306.9" style="font-family:Times New Roman;font-size:14.00;">version :string</text>
<text text-anchor="start" x="7.5" y="-289.9" style="font-family:Times New Roman;font-size:14.00;">created_at :datetime</text>
<text text-anchor="start" x="7.5" y="-272.9" style="font-family:Times New Roman;font-size:14.00;">updated_at :datetime</text>
</g>
<!-- Bug -->
<g id="node3" class="node"><title>Bug</title>
<polyline style="fill:none;stroke:black;" points="103,-0 244,-0 "/>
<path style="fill:none;stroke:black;" d="M244,-0C250,-0 256,-6 256,-12"/>
<polyline style="fill:none;stroke:black;" points="256,-12 256,-140 "/>
<path style="fill:none;stroke:black;" d="M256,-140C256,-146 250,-152 244,-152"/>
<polyline style="fill:none;stroke:black;" points="244,-152 103,-152 "/>
<path style="fill:none;stroke:black;" d="M103,-152C97,-152 91,-146 91,-140"/>
<polyline style="fill:none;stroke:black;" points="91,-140 91,-12 "/>
<path style="fill:none;stroke:black;" d="M91,-12C91,-6 97,-0 103,-0"/>
<text text-anchor="middle" x="173" y="-134.9" style="font-family:Times New Roman;font-size:14.00;">Bug</text>
<polyline style="fill:none;stroke:black;" points="91,-127 256,-127 "/>
<text text-anchor="start" x="98.5" y="-109.9" style="font-family:Times New Roman;font-size:14.00;">accepted :boolean</text>
<text text-anchor="start" x="98.5" y="-92.9" style="font-family:Times New Roman;font-size:14.00;">resolved :boolean</text>
<text text-anchor="start" x="98.5" y="-75.9" style="font-family:Times New Roman;font-size:14.00;">name :string</text>
<text text-anchor="start" x="98.5" y="-58.9" style="font-family:Times New Roman;font-size:14.00;">page :integer</text>
<text text-anchor="start" x="98.5" y="-41.9" style="font-family:Times New Roman;font-size:14.00;">description :text</text>
<text text-anchor="start" x="98.5" y="-24.9" style="font-family:Times New Roman;font-size:14.00;">created_at :datetime</text>
<text text-anchor="start" x="98.5" y="-7.9" style="font-family:Times New Roman;font-size:14.00;">updated_at :datetime</text>
</g>
<!-- Version&#45;&gt;Bug -->
<g id="edge2" class="edge"><title>Version&#45;&gt;Bug</title>
<path style="fill:none;stroke:black;" d="M102,-257C113,-228 127,-192 140,-159"/>
<ellipse style="fill:none;stroke:black;" cx="100.405" cy="-261.255" rx="4.00001" ry="4.00001"/>
<ellipse style="fill:black;stroke:black;" cx="141.424" cy="-155.677" rx="4.00002" ry="4.00002"/>
</g>
<!-- ErrorType -->
<g id="node2" class="node"><title>ErrorType</title>
<polyline style="fill:none;stroke:black;" points="194,-265 335,-265 "/>
<path style="fill:none;stroke:black;" d="M335,-265C341,-265 347,-271 347,-277"/>
<polyline style="fill:none;stroke:black;" points="347,-277 347,-337 "/>
<path style="fill:none;stroke:black;" d="M347,-337C347,-343 341,-349 335,-349"/>
<polyline style="fill:none;stroke:black;" points="335,-349 194,-349 "/>
<path style="fill:none;stroke:black;" d="M194,-349C188,-349 182,-343 182,-337"/>
<polyline style="fill:none;stroke:black;" points="182,-337 182,-277 "/>
<path style="fill:none;stroke:black;" d="M182,-277C182,-271 188,-265 194,-265"/>
<text text-anchor="middle" x="264" y="-331.9" style="font-family:Times New Roman;font-size:14.00;">ErrorType</text>
<polyline style="fill:none;stroke:black;" points="182,-324 347,-324 "/>
<text text-anchor="start" x="189.5" y="-306.9" style="font-family:Times New Roman;font-size:14.00;">errortype :string</text>
<text text-anchor="start" x="189.5" y="-289.9" style="font-family:Times New Roman;font-size:14.00;">created_at :datetime</text>
<text text-anchor="start" x="189.5" y="-272.9" style="font-family:Times New Roman;font-size:14.00;">updated_at :datetime</text>
</g>
<!-- ErrorType&#45;&gt;Bug -->
<g id="edge4" class="edge"><title>ErrorType&#45;&gt;Bug</title>
<path style="fill:none;stroke:black;" d="M243,-255C233,-227 219,-192 206,-160"/>
<polygon style="fill:black;stroke:black;" points="243.286,-255.715 242.822,-266.671 245.143,-260.358 247,-265 247,-265 247,-265 245.143,-260.358 251.178,-263.329 243.286,-255.715 243.286,-255.715"/>
<ellipse style="fill:black;stroke:black;" cx="204.405" cy="-155.745" rx="4.00001" ry="4.00001"/>
</g>
<!-- User -->
<g id="node4" class="node"><title>User</title>
<polyline style="fill:none;stroke:black;" points="376,-188 590,-188 "/>
<path style="fill:none;stroke:black;" d="M590,-188C596,-188 602,-194 602,-200"/>
<polyline style="fill:none;stroke:black;" points="602,-200 602,-413 "/>
<path style="fill:none;stroke:black;" d="M602,-413C602,-419 596,-425 590,-425"/>
<polyline style="fill:none;stroke:black;" points="590,-425 376,-425 "/>
<path style="fill:none;stroke:black;" d="M376,-425C370,-425 364,-419 364,-413"/>
<polyline style="fill:none;stroke:black;" points="364,-413 364,-200 "/>
<path style="fill:none;stroke:black;" d="M364,-200C364,-194 370,-188 376,-188"/>
<text text-anchor="middle" x="483" y="-407.9" style="font-family:Times New Roman;font-size:14.00;">User</text>
<polyline style="fill:none;stroke:black;" points="364,-400 602,-400 "/>
<text text-anchor="start" x="372" y="-383.4" style="font-family:Times New Roman;font-size:14.00;">email :string</text>
<text text-anchor="start" x="372" y="-366.4" style="font-family:Times New Roman;font-size:14.00;">encrypted_password :string</text>
<text text-anchor="start" x="372" y="-349.4" style="font-family:Times New Roman;font-size:14.00;">password_salt :string</text>
<text text-anchor="start" x="372" y="-332.4" style="font-family:Times New Roman;font-size:14.00;">reset_password_token :string</text>
<text text-anchor="start" x="372" y="-315.4" style="font-family:Times New Roman;font-size:14.00;">remember_token :string</text>
<text text-anchor="start" x="372" y="-298.4" style="font-family:Times New Roman;font-size:14.00;">remember_created_at :datetime</text>
<text text-anchor="start" x="372" y="-281.4" style="font-family:Times New Roman;font-size:14.00;">current_sign_in_at :datetime</text>
<text text-anchor="start" x="372" y="-264.4" style="font-family:Times New Roman;font-size:14.00;">last_sign_in_at :datetime</text>
<text text-anchor="start" x="372" y="-247.4" style="font-family:Times New Roman;font-size:14.00;">current_sign_in_ip :string</text>
<text text-anchor="start" x="372" y="-230.4" style="font-family:Times New Roman;font-size:14.00;">last_sign_in_ip :string</text>
<text text-anchor="start" x="372" y="-213.4" style="font-family:Times New Roman;font-size:14.00;">created_at :datetime</text>
<text text-anchor="start" x="372" y="-196.4" style="font-family:Times New Roman;font-size:14.00;">updated_at :datetime</text>
</g>
</g>
</svg>
