<?xml version="1.0" encoding="UTF-8" standalone="no"?>
<!DOCTYPE svg PUBLIC "-//W3C//DTD SVG 1.0//EN"
 "http://www.w3.org/TR/2001/REC-SVG-20010904/DTD/svg10.dtd" [
 <!ATTLIST svg xmlns:xlink CDATA #FIXED "http://www.w3.org/1999/xlink">
]>
<!-- Generated by Graphviz version 2.20.2 (Tue Mar &#160;2 21:46:26 UTC 2010)
     For user: (s) Sergio Alonso,,, -->
<!-- Title: models_diagram Pages: 1 -->
<svg width="354pt" height="280pt"
 viewBox="0.00 0.00 354.00 280.00" xmlns="http://www.w3.org/2000/svg" xmlns:xlink="http://www.w3.org/1999/xlink">
<g id="graph0" class="graph" transform="scale(1 1) rotate(0) translate(4 276)">
<title>models_diagram</title>
<polygon style="fill:white;stroke:white;" points="-4,4 -4,-276 350,-276 350,4 -4,4"/>
<!-- Version -->
<g id="node1" class="node"><title>Version</title>
<polyline style="fill:none;stroke:black;" points="12,-0 153,-0 "/>
<path style="fill:none;stroke:black;" d="M153,-0C159,-0 165,-6 165,-12"/>
<polyline style="fill:none;stroke:black;" points="165,-12 165,-72 "/>
<path style="fill:none;stroke:black;" d="M165,-72C165,-78 159,-84 153,-84"/>
<polyline style="fill:none;stroke:black;" points="153,-84 12,-84 "/>
<path style="fill:none;stroke:black;" d="M12,-84C6,-84 0,-78 0,-72"/>
<polyline style="fill:none;stroke:black;" points="0,-72 0,-12 "/>
<path style="fill:none;stroke:black;" d="M0,-12C0,-6 6,-0 12,-0"/>
<text text-anchor="middle" x="82" y="-66.9" style="font-family:Times New Roman;font-size:14.00;">Version</text>
<polyline style="fill:none;stroke:black;" points="0,-59 165,-59 "/>
<text text-anchor="start" x="7.5" y="-41.9" style="font-family:Times New Roman;font-size:14.00;">version :string</text>
<text text-anchor="start" x="7.5" y="-24.9" style="font-family:Times New Roman;font-size:14.00;">created_at :datetime</text>
<text text-anchor="start" x="7.5" y="-7.9" style="font-family:Times New Roman;font-size:14.00;">updated_at :datetime</text>
</g>
<!-- Bug -->
<g id="node2" class="node"><title>Bug</title>
<polyline style="fill:none;stroke:black;" points="103,-120 244,-120 "/>
<path style="fill:none;stroke:black;" d="M244,-120C250,-120 256,-126 256,-132"/>
<polyline style="fill:none;stroke:black;" points="256,-132 256,-260 "/>
<path style="fill:none;stroke:black;" d="M256,-260C256,-266 250,-272 244,-272"/>
<polyline style="fill:none;stroke:black;" points="244,-272 103,-272 "/>
<path style="fill:none;stroke:black;" d="M103,-272C97,-272 91,-266 91,-260"/>
<polyline style="fill:none;stroke:black;" points="91,-260 91,-132 "/>
<path style="fill:none;stroke:black;" d="M91,-132C91,-126 97,-120 103,-120"/>
<text text-anchor="middle" x="173" y="-254.9" style="font-family:Times New Roman;font-size:14.00;">Bug</text>
<polyline style="fill:none;stroke:black;" points="91,-247 256,-247 "/>
<text text-anchor="start" x="98.5" y="-229.9" style="font-family:Times New Roman;font-size:14.00;">name :string</text>
<text text-anchor="start" x="98.5" y="-212.9" style="font-family:Times New Roman;font-size:14.00;">id_version :integer</text>
<text text-anchor="start" x="98.5" y="-195.9" style="font-family:Times New Roman;font-size:14.00;">page :integer</text>
<text text-anchor="start" x="98.5" y="-178.9" style="font-family:Times New Roman;font-size:14.00;">id_type :integer</text>
<text text-anchor="start" x="98.5" y="-161.9" style="font-family:Times New Roman;font-size:14.00;">description :string</text>
<text text-anchor="start" x="98.5" y="-144.9" style="font-family:Times New Roman;font-size:14.00;">created_at :datetime</text>
<text text-anchor="start" x="98.5" y="-127.9" style="font-family:Times New Roman;font-size:14.00;">updated_at :datetime</text>
</g>
<!-- Bug&#45;&gt;Version -->
<g id="edge4" class="edge"><title>Bug&#45;&gt;Version</title>
<path style="fill:none;stroke:black;" d="M124,-113C120,-106 115,-98 111,-91"/>
<ellipse style="fill:none;stroke:black;" cx="126.015" cy="-116.527" rx="4.00002" ry="4.00002"/>
<ellipse style="fill:black;stroke:black;" cx="108.985" cy="-87.473" rx="4.00002" ry="4.00002"/>
</g>
<!-- Type -->
<g id="node3" class="node"><title>Type</title>
<polyline style="fill:none;stroke:black;" points="194,-8 335,-8 "/>
<path style="fill:none;stroke:black;" d="M335,-8C341,-8 347,-14 347,-20"/>
<polyline style="fill:none;stroke:black;" points="347,-20 347,-63 "/>
<path style="fill:none;stroke:black;" d="M347,-63C347,-69 341,-75 335,-75"/>
<polyline style="fill:none;stroke:black;" points="335,-75 194,-75 "/>
<path style="fill:none;stroke:black;" d="M194,-75C188,-75 182,-69 182,-63"/>
<polyline style="fill:none;stroke:black;" points="182,-63 182,-20 "/>
<path style="fill:none;stroke:black;" d="M182,-20C182,-14 188,-8 194,-8"/>
<text text-anchor="middle" x="264" y="-57.9" style="font-family:Times New Roman;font-size:14.00;">Type</text>
<polyline style="fill:none;stroke:black;" points="182,-50 347,-50 "/>
<text text-anchor="start" x="189.5" y="-33.4" style="font-family:Times New Roman;font-size:14.00;">created_at :datetime</text>
<text text-anchor="start" x="189.5" y="-16.4" style="font-family:Times New Roman;font-size:14.00;">updated_at :datetime</text>
</g>
<!-- Bug&#45;&gt;Type -->
<g id="edge2" class="edge"><title>Bug&#45;&gt;Type</title>
<path style="fill:none;stroke:black;" d="M222,-113C228,-102 235,-92 240,-82"/>
<ellipse style="fill:none;stroke:black;" cx="219.985" cy="-116.527" rx="4.00002" ry="4.00002"/>
<ellipse style="fill:black;stroke:black;" cx="242.015" cy="-78.473" rx="4.00002" ry="4.00002"/>
</g>
</g>
</svg>
